# Lowpoly Tree (procedural)
mtllib lowpoly_tree.mtl
v 0.220000 0.000000 0.000000
v 0.140000 2.200000 0.000000
v 0.155563 0.000000 0.155563
v 0.098995 2.200000 0.098995
v 0.000000 0.000000 0.220000
v 0.000000 2.200000 0.140000
v -0.155563 0.000000 0.155563
v -0.098995 2.200000 0.098995
v -0.220000 0.000000 0.000000
v -0.140000 2.200000 0.000000
v -0.155563 0.000000 -0.155563
v -0.098995 2.200000 -0.098995
v -0.000000 0.000000 -0.220000
v -0.000000 2.200000 -0.140000
v 0.155563 0.000000 -0.155563
v 0.098995 2.200000 -0.098995
v 0.000000 2.200000 0.000000
v -0.394298 2.987988 0.000000
v 0.394298 2.987988 0.000000
v -0.394298 1.712012 0.000000
v 0.394298 1.712012 0.000000
v 0.000000 1.955702 0.637988
v 0.000000 2.744298 0.637988
v 0.000000 1.955702 -0.637988
v 0.000000 2.744298 -0.637988
v 0.637988 2.350000 -0.394298
v 0.637988 2.350000 0.394298
v -0.637988 2.350000 -0.394298
v -0.637988 2.350000 0.394298
v -0.765439 2.660390 0.250000
v -0.134561 2.660390 0.250000
v -0.765439 1.639610 0.250000
v -0.134561 1.639610 0.250000
v -0.450000 1.834561 0.760390
v -0.450000 2.465439 0.760390
v -0.450000 1.834561 -0.260390
v -0.450000 2.465439 -0.260390
v 0.060390 2.150000 -0.065439
v 0.060390 2.150000 0.565439
v -0.960390 2.150000 -0.065439
v -0.960390 2.150000 0.565439
v 0.124047 2.627404 -0.200000
v 0.775953 2.627404 -0.200000
v 0.124047 1.572596 -0.200000
v 0.775953 1.572596 -0.200000
v 0.450000 1.774047 0.327404
v 0.450000 2.425953 0.327404
v 0.450000 1.774047 -0.727404
v 0.450000 2.425953 -0.727404
v 0.977404 2.100000 -0.525953
v 0.977404 2.100000 0.125953
v -0.077404 2.100000 -0.525953
v -0.077404 2.100000 0.125953
v -0.439152 3.117858 -0.350000
v 0.139152 3.117858 -0.350000
v -0.439152 2.182142 -0.350000
v 0.139152 2.182142 -0.350000
v -0.150000 2.360848 0.117858
v -0.150000 2.939152 0.117858
v -0.150000 2.360848 -0.817858
v -0.150000 2.939152 -0.817858
v 0.317858 2.650000 -0.639152
v 0.317858 2.650000 -0.060848
v -0.617858 2.650000 -0.639152
v -0.617858 2.650000 -0.060848
v -0.089152 3.067858 0.400000
v 0.489152 3.067858 0.400000
v -0.089152 2.132142 0.400000
v 0.489152 2.132142 0.400000
v 0.200000 2.310848 0.867858
v 0.200000 2.889152 0.867858
v 0.200000 2.310848 -0.067858
v 0.200000 2.889152 -0.067858
v 0.667858 2.600000 0.110848
v 0.667858 2.600000 0.689152
v -0.267858 2.600000 0.110848
v -0.267858 2.600000 0.689152
vt 0.000000 0.000000
vt 0.125000 0.000000
vt 0.125000 1.000000
vt 0.000000 1.000000
vt 0.125000 0.000000
vt 0.250000 0.000000
vt 0.250000 1.000000
vt 0.125000 1.000000
vt 0.250000 0.000000
vt 0.375000 0.000000
vt 0.375000 1.000000
vt 0.250000 1.000000
vt 0.375000 0.000000
vt 0.500000 0.000000
vt 0.500000 1.000000
vt 0.375000 1.000000
vt 0.500000 0.000000
vt 0.625000 0.000000
vt 0.625000 1.000000
vt 0.500000 1.000000
vt 0.625000 0.000000
vt 0.750000 0.000000
vt 0.750000 1.000000
vt 0.625000 1.000000
vt 0.750000 0.000000
vt 0.875000 0.000000
vt 0.875000 1.000000
vt 0.750000 1.000000
vt 0.875000 0.000000
vt 1.000000 0.000000
vt 1.000000 1.000000
vt 0.875000 1.000000
vt 0.500000 0.500000
vt 0.818182 0.500000
vt 0.724989 0.724989
vt 0.724989 0.724989
vt 0.500000 0.818182
vt 0.500000 0.818182
vt 0.275011 0.724989
vt 0.275011 0.724989
vt 0.181818 0.500000
vt 0.181818 0.500000
vt 0.275011 0.275011
vt 0.275011 0.275011
vt 0.500000 0.181818
vt 0.500000 0.181818
vt 0.724989 0.275011
vt 0.724989 0.275011
vt 0.818182 0.500000
vt 1.000000 0.823792
vt 0.911896 0.500000
vt 0.750000 0.676208
vt 1.000000 0.823792
vt 0.750000 0.676208
vt 0.500000 0.823792
vt 1.000000 0.823792
vt 0.500000 0.823792
vt 0.250000 0.676208
vt 1.000000 0.823792
vt 0.250000 0.676208
vt 0.088104 0.500000
vt 1.000000 0.823792
vt 0.088104 0.500000
vt 0.911896 0.500000
vt 0.500000 0.823792
vt 0.750000 0.676208
vt 0.588104 0.500000
vt 0.750000 0.676208
vt 0.911896 0.500000
vt 0.750000 0.323792
vt 0.911896 0.500000
vt 0.088104 0.500000
vt 1.000000 0.176208
vt 0.088104 0.500000
vt 0.250000 0.676208
vt 0.250000 0.323792
vt 0.250000 0.676208
vt 0.500000 0.823792
vt 0.411896 0.500000
vt 0.500000 0.176208
vt 0.588104 0.500000
vt 0.750000 0.323792
vt 0.500000 0.176208
vt 0.750000 0.323792
vt 1.000000 0.176208
vt 0.500000 0.176208
vt 1.000000 0.176208
vt 0.250000 0.323792
vt 0.500000 0.176208
vt 0.250000 0.323792
vt 0.411896 0.500000
vt 0.500000 0.176208
vt 0.411896 0.500000
vt 0.588104 0.500000
vt 0.750000 0.323792
vt 0.588104 0.500000
vt 0.750000 0.676208
vt 1.000000 0.176208
vt 0.750000 0.323792
vt 0.911896 0.500000
vt 0.250000 0.323792
vt 1.000000 0.176208
vt 0.088104 0.500000
vt 0.411896 0.500000
vt 0.250000 0.323792
vt 0.250000 0.676208
vt 0.588104 0.500000
vt 0.411896 0.500000
vt 0.500000 0.823792
vt 1.000000 0.823792
vt 0.911896 0.500000
vt 0.750000 0.676208
vt 1.000000 0.823792
vt 0.750000 0.676208
vt 0.500000 0.823792
vt 1.000000 0.823792
vt 0.500000 0.823792
vt 0.250000 0.676208
vt 1.000000 0.823792
vt 0.250000 0.676208
vt 0.088104 0.500000
vt 1.000000 0.823792
vt 0.088104 0.500000
vt 0.911896 0.500000
vt 0.500000 0.823792
vt 0.750000 0.676208
vt 0.588104 0.500000
vt 0.750000 0.676208
vt 0.911896 0.500000
vt 0.750000 0.323792
vt 0.911896 0.500000
vt 0.088104 0.500000
vt 1.000000 0.176208
vt 0.088104 0.500000
vt 0.250000 0.676208
vt 0.250000 0.323792
vt 0.250000 0.676208
vt 0.500000 0.823792
vt 0.411896 0.500000
vt 0.500000 0.176208
vt 0.588104 0.500000
vt 0.750000 0.323792
vt 0.500000 0.176208
vt 0.750000 0.323792
vt 1.000000 0.176208
vt 0.500000 0.176208
vt 1.000000 0.176208
vt 0.250000 0.323792
vt 0.500000 0.176208
vt 0.250000 0.323792
vt 0.411896 0.500000
vt 0.500000 0.176208
vt 0.411896 0.500000
vt 0.588104 0.500000
vt 0.750000 0.323792
vt 0.588104 0.500000
vt 0.750000 0.676208
vt 1.000000 0.176208
vt 0.750000 0.323792
vt 0.911896 0.500000
vt 0.250000 0.323792
vt 1.000000 0.176208
vt 0.088104 0.500000
vt 0.411896 0.500000
vt 0.250000 0.323792
vt 0.250000 0.676208
vt 0.588104 0.500000
vt 0.411896 0.500000
vt 0.500000 0.823792
vt 1.000000 0.823792
vt 0.911896 0.500000
vt 0.750000 0.676208
vt 1.000000 0.823792
vt 0.750000 0.676208
vt 0.500000 0.823792
vt 1.000000 0.823792
vt 0.500000 0.823792
vt 0.250000 0.676208
vt 1.000000 0.823792
vt 0.250000 0.676208
vt 0.088104 0.500000
vt 1.000000 0.823792
vt 0.088104 0.500000
vt 0.911896 0.500000
vt 0.500000 0.823792
vt 0.750000 0.676208
vt 0.588104 0.500000
vt 0.750000 0.676208
vt 0.911896 0.500000
vt 0.750000 0.323792
vt 0.911896 0.500000
vt 0.088104 0.500000
vt 1.000000 0.176208
vt 0.088104 0.500000
vt 0.250000 0.676208
vt 0.250000 0.323792
vt 0.250000 0.676208
vt 0.500000 0.823792
vt 0.411896 0.500000
vt 0.500000 0.176208
vt 0.588104 0.500000
vt 0.750000 0.323792
vt 0.500000 0.176208
vt 0.750000 0.323792
vt 1.000000 0.176208
vt 0.500000 0.176208
vt 1.000000 0.176208
vt 0.250000 0.323792
vt 0.500000 0.176208
vt 0.250000 0.323792
vt 0.411896 0.500000
vt 0.500000 0.176208
vt 0.411896 0.500000
vt 0.588104 0.500000
vt 0.750000 0.323792
vt 0.588104 0.500000
vt 0.750000 0.676208
vt 1.000000 0.176208
vt 0.750000 0.323792
vt 0.911896 0.500000
vt 0.250000 0.323792
vt 1.000000 0.176208
vt 0.088104 0.500000
vt 0.411896 0.500000
vt 0.250000 0.323792
vt 0.250000 0.676208
vt 0.588104 0.500000
vt 0.411896 0.500000
vt 0.500000 0.823792
vt 1.000000 0.823792
vt 0.911896 0.500000
vt 0.750000 0.676208
vt 1.000000 0.823792
vt 0.750000 0.676208
vt 0.500000 0.823792
vt 1.000000 0.823792
vt 0.500000 0.823792
vt 0.250000 0.676208
vt 1.000000 0.823792
vt 0.250000 0.676208
vt 0.088104 0.500000
vt 1.000000 0.823792
vt 0.088104 0.500000
vt 0.911896 0.500000
vt 0.500000 0.823792
vt 0.750000 0.676208
vt 0.588104 0.500000
vt 0.750000 0.676208
vt 0.911896 0.500000
vt 0.750000 0.323792
vt 0.911896 0.500000
vt 0.088104 0.500000
vt 1.000000 0.176208
vt 0.088104 0.500000
vt 0.250000 0.676208
vt 0.250000 0.323792
vt 0.250000 0.676208
vt 0.500000 0.823792
vt 0.411896 0.500000
vt 0.500000 0.176208
vt 0.588104 0.500000
vt 0.750000 0.323792
vt 0.500000 0.176208
vt 0.750000 0.323792
vt 1.000000 0.176208
vt 0.500000 0.176208
vt 1.000000 0.176208
vt 0.250000 0.323792
vt 0.500000 0.176208
vt 0.250000 0.323792
vt 0.411896 0.500000
vt 0.500000 0.176208
vt 0.411896 0.500000
vt 0.588104 0.500000
vt 0.750000 0.323792
vt 0.588104 0.500000
vt 0.750000 0.676208
vt 1.000000 0.176208
vt 0.750000 0.323792
vt 0.911896 0.500000
vt 0.250000 0.323792
vt 1.000000 0.176208
vt 0.088104 0.500000
vt 0.411896 0.500000
vt 0.250000 0.323792
vt 0.250000 0.676208
vt 0.588104 0.500000
vt 0.411896 0.500000
vt 0.500000 0.823792
vt 1.000000 0.823792
vt 0.911896 0.500000
vt 0.750000 0.676208
vt 1.000000 0.823792
vt 0.750000 0.676208
vt 0.500000 0.823792
vt 1.000000 0.823792
vt 0.500000 0.823792
vt 0.250000 0.676208
vt 1.000000 0.823792
vt 0.250000 0.676208
vt 0.088104 0.500000
vt 1.000000 0.823792
vt 0.088104 0.500000
vt 0.911896 0.500000
vt 0.500000 0.823792
vt 0.750000 0.676208
vt 0.588104 0.500000
vt 0.750000 0.676208
vt 0.911896 0.500000
vt 0.750000 0.323792
vt 0.911896 0.500000
vt 0.088104 0.500000
vt 1.000000 0.176208
vt 0.088104 0.500000
vt 0.250000 0.676208
vt 0.250000 0.323792
vt 0.250000 0.676208
vt 0.500000 0.823792
vt 0.411896 0.500000
vt 0.500000 0.176208
vt 0.588104 0.500000
vt 0.750000 0.323792
vt 0.500000 0.176208
vt 0.750000 0.323792
vt 1.000000 0.176208
vt 0.500000 0.176208
vt 1.000000 0.176208
vt 0.250000 0.323792
vt 0.500000 0.176208
vt 0.250000 0.323792
vt 0.411896 0.500000
vt 0.500000 0.176208
vt 0.411896 0.500000
vt 0.588104 0.500000
vt 0.750000 0.323792
vt 0.588104 0.500000
vt 0.750000 0.676208
vt 1.000000 0.176208
vt 0.750000 0.323792
vt 0.911896 0.500000
vt 0.250000 0.323792
vt 1.000000 0.176208
vt 0.088104 0.500000
vt 0.411896 0.500000
vt 0.250000 0.323792
vt 0.250000 0.676208
vt 0.588104 0.500000
vt 0.411896 0.500000
vt 0.500000 0.823792
vn -0.923359 -0.033577 -0.382468
vn -0.382468 -0.033577 -0.923359
vn 0.382468 -0.033577 -0.923359
vn 0.923359 -0.033577 -0.382468
vn 0.923359 -0.033577 0.382468
vn 0.382468 -0.033577 0.923359
vn -0.382468 -0.033577 0.923359
vn -0.923359 -0.033577 0.382468
vn 0.000000 1.000000 0.000000
vn -0.577350 0.577350 0.577350
vn -0.000000 0.934172 0.356822
vn 0.000000 0.934172 -0.356822
vn -0.577350 0.577350 -0.577350
vn -0.934172 0.356822 0.000000
vn 0.577350 0.577350 0.577350
vn -0.356822 0.000000 0.934172
vn -0.934172 -0.356822 -0.000000
vn -0.356822 0.000000 -0.934172
vn 0.577350 0.577350 -0.577350
vn 0.577350 -0.577350 0.577350
vn 0.000000 -0.934172 0.356822
vn -0.000000 -0.934172 -0.356822
vn 0.577350 -0.577350 -0.577350
vn 0.934172 -0.356822 0.000000
vn 0.356822 -0.000000 0.934172
vn -0.577350 -0.577350 0.577350
vn -0.577350 -0.577350 -0.577350
vn 0.356822 0.000000 -0.934172
vn 0.934172 0.356822 0.000000
vn -0.577350 0.577350 0.577350
vn -0.000000 0.934172 0.356822
vn 0.000000 0.934172 -0.356822
vn -0.577350 0.577350 -0.577350
vn -0.934172 0.356822 0.000000
vn 0.577350 0.577350 0.577350
vn -0.356822 0.000000 0.934172
vn -0.934172 -0.356822 -0.000000
vn -0.356822 0.000000 -0.934172
vn 0.577350 0.577350 -0.577350
vn 0.577350 -0.577350 0.577350
vn 0.000000 -0.934172 0.356822
vn -0.000000 -0.934172 -0.356822
vn 0.577350 -0.577350 -0.577350
vn 0.934172 -0.356822 0.000000
vn 0.356822 -0.000000 0.934172
vn -0.577350 -0.577350 0.577350
vn -0.577350 -0.577350 -0.577350
vn 0.356822 0.000000 -0.934172
vn 0.934172 0.356822 0.000000
vn -0.577350 0.577350 0.577350
vn -0.000000 0.934172 0.356822
vn 0.000000 0.934172 -0.356822
vn -0.577350 0.577350 -0.577350
vn -0.934172 0.356822 0.000000
vn 0.577350 0.577350 0.577350
vn -0.356822 0.000000 0.934172
vn -0.934172 -0.356822 -0.000000
vn -0.356822 0.000000 -0.934172
vn 0.577350 0.577350 -0.577350
vn 0.577350 -0.577350 0.577350
vn 0.000000 -0.934172 0.356822
vn -0.000000 -0.934172 -0.356822
vn 0.577350 -0.577350 -0.577350
vn 0.934172 -0.356822 0.000000
vn 0.356822 -0.000000 0.934172
vn -0.577350 -0.577350 0.577350
vn -0.577350 -0.577350 -0.577350
vn 0.356822 0.000000 -0.934172
vn 0.934172 0.356822 0.000000
vn -0.577350 0.577350 0.577350
vn -0.000000 0.934172 0.356822
vn 0.000000 0.934172 -0.356822
vn -0.577350 0.577350 -0.577350
vn -0.934172 0.356822 0.000000
vn 0.577350 0.577350 0.577350
vn -0.356822 0.000000 0.934172
vn -0.934172 -0.356822 -0.000000
vn -0.356822 0.000000 -0.934172
vn 0.577350 0.577350 -0.577350
vn 0.577350 -0.577350 0.577350
vn 0.000000 -0.934172 0.356822
vn -0.000000 -0.934172 -0.356822
vn 0.577350 -0.577350 -0.577350
vn 0.934172 -0.356822 0.000000
vn 0.356822 -0.000000 0.934172
vn -0.577350 -0.577350 0.577350
vn -0.577350 -0.577350 -0.577350
vn 0.356822 0.000000 -0.934172
vn 0.934172 0.356822 0.000000
vn -0.577350 0.577350 0.577350
vn -0.000000 0.934172 0.356822
vn 0.000000 0.934172 -0.356822
vn -0.577350 0.577350 -0.577350
vn -0.934172 0.356822 0.000000
vn 0.577350 0.577350 0.577350
vn -0.356822 0.000000 0.934172
vn -0.934172 -0.356822 -0.000000
vn -0.356822 0.000000 -0.934172
vn 0.577350 0.577350 -0.577350
vn 0.577350 -0.577350 0.577350
vn 0.000000 -0.934172 0.356822
vn -0.000000 -0.934172 -0.356822
vn 0.577350 -0.577350 -0.577350
vn 0.934172 -0.356822 0.000000
vn 0.356822 -0.000000 0.934172
vn -0.577350 -0.577350 0.577350
vn -0.577350 -0.577350 -0.577350
vn 0.356822 0.000000 -0.934172
vn 0.934172 0.356822 0.000000
g Trunk
usemtl mat_trunk
f 1/1/1 3/2/1 4/3/1
f 1/1/1 4/3/1 2/4/1
f 3/5/2 5/6/2 6/7/2
f 3/5/2 6/7/2 4/8/2
f 5/9/3 7/10/3 8/11/3
f 5/9/3 8/11/3 6/12/3
f 7/13/4 9/14/4 10/15/4
f 7/13/4 10/15/4 8/16/4
f 9/17/5 11/18/5 12/19/5
f 9/17/5 12/19/5 10/20/5
f 11/21/6 13/22/6 14/23/6
f 11/21/6 14/23/6 12/24/6
f 13/25/7 15/26/7 16/27/7
f 13/25/7 16/27/7 14/28/7
f 15/29/8 1/30/8 2/31/8
f 15/29/8 2/31/8 16/32/8
f 17/33/9 2/34/9 4/35/9
f 17/33/9 4/36/9 6/37/9
f 17/33/9 6/38/9 8/39/9
f 17/33/9 8/40/9 10/41/9
f 17/33/9 10/42/9 12/43/9
f 17/33/9 12/44/9 14/45/9
f 17/33/9 14/46/9 16/47/9
f 17/33/9 16/48/9 2/49/9
g Leaves
usemtl mat_leaves
f 18/50/10 29/51/10 23/52/10
f 18/53/11 23/54/11 19/55/11
f 18/56/12 19/57/12 25/58/12
f 18/59/13 25/60/13 28/61/13
f 18/62/14 28/63/14 29/64/14
f 19/65/15 23/66/15 27/67/15
f 23/68/16 29/69/16 22/70/16
f 29/71/17 28/72/17 20/73/17
f 28/74/18 25/75/18 24/76/18
f 25/77/19 19/78/19 26/79/19
f 21/80/20 27/81/20 22/82/20
f 21/83/21 22/84/21 20/85/21
f 21/86/22 20/87/22 24/88/22
f 21/89/23 24/90/23 26/91/23
f 21/92/24 26/93/24 27/94/24
f 22/95/25 27/96/25 23/97/25
f 20/98/26 22/99/26 29/100/26
f 24/101/27 20/102/27 28/103/27
f 26/104/28 24/105/28 25/106/28
f 27/107/29 26/108/29 19/109/29
f 30/110/30 41/111/30 35/112/30
f 30/113/31 35/114/31 31/115/31
f 30/116/32 31/117/32 37/118/32
f 30/119/33 37/120/33 40/121/33
f 30/122/34 40/123/34 41/124/34
f 31/125/35 35/126/35 39/127/35
f 35/128/36 41/129/36 34/130/36
f 41/131/37 40/132/37 32/133/37
f 40/134/38 37/135/38 36/136/38
f 37/137/39 31/138/39 38/139/39
f 33/140/40 39/141/40 34/142/40
f 33/143/41 34/144/41 32/145/41
f 33/146/42 32/147/42 36/148/42
f 33/149/43 36/150/43 38/151/43
f 33/152/44 38/153/44 39/154/44
f 34/155/45 39/156/45 35/157/45
f 32/158/46 34/159/46 41/160/46
f 36/161/47 32/162/47 40/163/47
f 38/164/48 36/165/48 37/166/48
f 39/167/49 38/168/49 31/169/49
f 42/170/50 53/171/50 47/172/50
f 42/173/51 47/174/51 43/175/51
f 42/176/52 43/177/52 49/178/52
f 42/179/53 49/180/53 52/181/53
f 42/182/54 52/183/54 53/184/54
f 43/185/55 47/186/55 51/187/55
f 47/188/56 53/189/56 46/190/56
f 53/191/57 52/192/57 44/193/57
f 52/194/58 49/195/58 48/196/58
f 49/197/59 43/198/59 50/199/59
f 45/200/60 51/201/60 46/202/60
f 45/203/61 46/204/61 44/205/61
f 45/206/62 44/207/62 48/208/62
f 45/209/63 48/210/63 50/211/63
f 45/212/64 50/213/64 51/214/64
f 46/215/65 51/216/65 47/217/65
f 44/218/66 46/219/66 53/220/66
f 48/221/67 44/222/67 52/223/67
f 50/224/68 48/225/68 49/226/68
f 51/227/69 50/228/69 43/229/69
f 54/230/70 65/231/70 59/232/70
f 54/233/71 59/234/71 55/235/71
f 54/236/72 55/237/72 61/238/72
f 54/239/73 61/240/73 64/241/73
f 54/242/74 64/243/74 65/244/74
f 55/245/75 59/246/75 63/247/75
f 59/248/76 65/249/76 58/250/76
f 65/251/77 64/252/77 56/253/77
f 64/254/78 61/255/78 60/256/78
f 61/257/79 55/258/79 62/259/79
f 57/260/80 63/261/80 58/262/80
f 57/263/81 58/264/81 56/265/81
f 57/266/82 56/267/82 60/268/82
f 57/269/83 60/270/83 62/271/83
f 57/272/84 62/273/84 63/274/84
f 58/275/85 63/276/85 59/277/85
f 56/278/86 58/279/86 65/280/86
f 60/281/87 56/282/87 64/283/87
f 62/284/88 60/285/88 61/286/88
f 63/287/89 62/288/89 55/289/89
f 66/290/90 77/291/90 71/292/90
f 66/293/91 71/294/91 67/295/91
f 66/296/92 67/297/92 73/298/92
f 66/299/93 73/300/93 76/301/93
f 66/302/94 76/303/94 77/304/94
f 67/305/95 71/306/95 75/307/95
f 71/308/96 77/309/96 70/310/96
f 77/311/97 76/312/97 68/313/97
f 76/314/98 73/315/98 72/316/98
f 73/317/99 67/318/99 74/319/99
f 69/320/100 75/321/100 70/322/100
f 69/323/101 70/324/101 68/325/101
f 69/326/102 68/327/102 72/328/102
f 69/329/103 72/330/103 74/331/103
f 69/332/104 74/333/104 75/334/104
f 70/335/105 75/336/105 71/337/105
f 68/338/106 70/339/106 77/340/106
f 72/341/107 68/342/107 76/343/107
f 74/344/108 72/345/108 73/346/108
f 75/347/109 74/348/109 67/349/109
